<svg width="43" height="382" viewBox="0 0 43 382" fill="none" xmlns="http://www.w3.org/2000/svg">
<path d="M21.635 307.74C20.9854 307.74 20.4595 307.214 20.4595 306.565V1.17547C20.4595 0.52587 20.9854 0 21.635 0C22.2846 0 22.8105 0.52587 22.8105 1.17547V306.549C22.8105 307.214 22.2846 307.74 21.635 307.74Z" fill="#84E4A4"/>
<path d="M21.6352 158.92C17.9696 158.92 15 155.951 15 152.285V141.752C15 138.087 17.9696 135.117 21.6352 135.117C25.3008 135.117 28.2703 138.087 28.2703 141.752V152.285C28.2703 155.935 25.3008 158.92 21.6352 158.92Z" fill="#84E4A4"/>
<path opacity="0.5" d="M21.6351 143.964C21.001 143.964 20.4751 143.438 20.4751 142.804V141.102C20.4751 140.468 21.001 139.942 21.6351 139.942C22.2692 139.942 22.7951 140.468 22.7951 141.102V142.804C22.7951 143.438 22.2847 143.964 21.6351 143.964Z" fill="#161242"/>
<path opacity="0.3" d="M26.7239 23.9421C26.7239 26.7415 24.4503 29.0306 21.6354 29.0306C18.8359 29.0306 16.5469 26.757 16.5469 23.9421C16.5469 21.1426 18.8204 18.8535 21.6354 18.8535C24.4503 18.8535 26.7239 21.1426 26.7239 23.9421Z" fill="#84E4A4"/>
<path opacity="0.5" d="M26.7239 40.3835C26.7239 43.1829 24.4503 45.472 21.6354 45.472C18.8359 45.472 16.5469 43.1984 16.5469 40.3835C16.5469 37.584 18.8204 35.2949 21.6354 35.2949C24.4503 35.2949 26.7239 37.5685 26.7239 40.3835Z" fill="#84E4A4"/>
<path opacity="0.8" d="M26.7239 56.8092C26.7239 59.6087 24.4503 61.8978 21.6354 61.8978C18.8359 61.8978 16.5469 59.6242 16.5469 56.8092C16.5469 54.0098 18.8204 51.7207 21.6354 51.7207C24.4503 51.7207 26.7239 54.0098 26.7239 56.8092Z" fill="#84E4A4"/>
<path d="M26.7239 73.2506C26.7239 76.0501 24.4503 78.3392 21.6354 78.3392C18.8359 78.3392 16.5469 76.0656 16.5469 73.2506C16.5469 70.4512 18.8204 68.1621 21.6354 68.1621C24.4503 68.1621 26.7239 70.4357 26.7239 73.2506Z" fill="#84E4A4"/>
<path d="M26.7239 89.3512C26.7239 92.1507 24.4503 94.4398 21.6354 94.4398C18.8359 94.4398 16.5469 92.1662 16.5469 89.3512C16.5469 86.5518 18.8204 84.2627 21.6354 84.2627C24.4503 84.2782 26.7239 86.5518 26.7239 89.3512Z" fill="#84E4A4"/>
<path d="M21.5 379.312C16.5106 379.312 11.7256 377.33 8.19755 373.802C4.66953 370.274 2.6875 365.489 2.6875 360.5C2.6875 355.511 4.66953 350.726 8.19755 347.198C11.7256 343.67 16.5106 341.688 21.5 341.688C26.4894 341.688 31.2744 343.67 34.8024 347.198C38.3305 350.726 40.3125 355.511 40.3125 360.5C40.3125 365.489 38.3305 370.274 34.8024 373.802C31.2744 377.33 26.4894 379.312 21.5 379.312ZM21.5 382C27.2022 382 32.6708 379.735 36.7028 375.703C40.7348 371.671 43 366.202 43 360.5C43 354.798 40.7348 349.329 36.7028 345.297C32.6708 341.265 27.2022 339 21.5 339C15.7978 339 10.3292 341.265 6.2972 345.297C2.26517 349.329 0 354.798 0 360.5C0 366.202 2.26517 371.671 6.2972 375.703C10.3292 379.735 15.7978 382 21.5 382Z" fill="white"/>
<path d="M16.8533 352.586C17.0731 352.472 17.3199 352.422 17.5664 352.44C17.813 352.458 18.0498 352.544 18.2508 352.688L27.6571 359.406C27.8313 359.531 27.9732 359.695 28.0712 359.885C28.1692 360.075 28.2203 360.286 28.2203 360.5C28.2203 360.714 28.1692 360.925 28.0712 361.115C27.9732 361.306 27.8313 361.47 27.6571 361.594L18.2508 368.313C18.0499 368.457 17.8132 368.542 17.5667 368.56C17.3203 368.578 17.0737 368.528 16.8539 368.415C16.6342 368.302 16.4499 368.13 16.3213 367.92C16.1927 367.709 16.1248 367.466 16.125 367.219V353.782C16.1247 353.535 16.1926 353.292 16.3211 353.081C16.4496 352.87 16.6337 352.699 16.8533 352.586Z" fill="white"/>
</svg>
