<svg xmlns="http://www.w3.org/2000/svg" xmlns:xlink="http://www.w3.org/1999/xlink" width="1920" height="1080" viewBox="0 0 1920 1080">
  <defs>
    <linearGradient id="linear-gradient" x1="1.018" y1="0.593" x2="0.195" y2="0.903" gradientUnits="objectBoundingBox">
      <stop offset="0" stop-color="#05072d"/>
      <stop offset="1" stop-color="#040738"/>
    </linearGradient>
    <linearGradient id="linear-gradient-2" x1="0.5" x2="0.5" y2="1" gradientUnits="objectBoundingBox">
      <stop offset="0" stop-color="#d2384f"/>
      <stop offset="1" stop-color="#691c28" stop-opacity="0.11"/>
    </linearGradient>
    <clipPath id="clip-Web_1920_1">
      <rect width="1920" height="1080"/>
    </clipPath>
  </defs>
  <g id="Web_1920_1" data-name="Web 1920 – 1" clip-path="url(#clip-Web_1920_1)">
    <rect width="1920" height="1080" fill="#030527"/>
    <path id="Path_1" data-name="Path 1" d="M2536.839,412.474c-133.257-3.1-509.786-65.079-661.637,7.747s-353.286,331.593-215.38,452.454,6.2,277.361,86.772,390.474S2265.677,1098.9,2450.067,1098.9s284.8,263.108,284.8,263.108V337.791S2670.1,415.573,2536.839,412.474Z" transform="translate(-785 -330)" fill="url(#linear-gradient)"/>
    <circle id="Ellipse_1" data-name="Ellipse 1" cx="8" cy="8" r="8" transform="translate(493 685)" fill="url(#linear-gradient-2)"/>
    <circle id="Ellipse_3" data-name="Ellipse 3" cx="18" cy="18" r="18" transform="translate(759 532)" fill="url(#linear-gradient-2)"/>
    <circle id="Ellipse_5" data-name="Ellipse 5" cx="23" cy="23" r="23" transform="translate(1497 922)" fill="url(#linear-gradient-2)"/>
    <circle id="Ellipse_7" data-name="Ellipse 7" cx="7" cy="7" r="7" transform="translate(1421 197)" fill="url(#linear-gradient-2)"/>
    <circle id="Ellipse_6" data-name="Ellipse 6" cx="8" cy="8" r="8" transform="translate(338 290)" fill="url(#linear-gradient-2)"/>
    <circle id="Ellipse_2" data-name="Ellipse 2" cx="21.5" cy="21.5" r="21.5" transform="translate(226 915)" fill="rgba(167,155,157,0.26)"/>
    <circle id="Ellipse_8" data-name="Ellipse 8" cx="21.5" cy="21.5" r="21.5" transform="translate(1263 497)" fill="rgba(167,155,157,0.26)"/>
    <circle id="Ellipse_4" data-name="Ellipse 4" cx="11" cy="11" r="11" transform="translate(807 872)" fill="rgba(167,155,157,0.26)"/>
  </g>
</svg>
