<svg xmlns="http://www.w3.org/2000/svg" xmlns:xlink="http://www.w3.org/1999/xlink" width="1920" height="3457" viewBox="0 0 1920 3457">
  <defs>
    <linearGradient id="linear-gradient" x1="-0.018" y1="0.407" x2="0.805" y2="0.097" gradientUnits="objectBoundingBox">
      <stop offset="0" stop-color="#05072d"/>
      <stop offset="1" stop-color="#040738"/>
    </linearGradient>
    <linearGradient id="linear-gradient-2" x1="-0.018" y1="0.593" x2="0.805" y2="0.903" xlink:href="#linear-gradient"/>
    <linearGradient id="linear-gradient-3" x1="0.5" x2="0.5" y2="1" gradientUnits="objectBoundingBox">
      <stop offset="0" stop-color="#d2384f"/>
      <stop offset="1" stop-color="#691c28" stop-opacity="0.11"/>
    </linearGradient>
    <clipPath id="clip-Web_1920_1">
      <rect width="1920" height="3457"/>
    </clipPath>
  </defs>
  <g id="Web_1920_1" data-name="Web 1920 – 1" clip-path="url(#clip-Web_1920_1)">
    <rect width="1920" height="3457" fill="#030527"/>
    <path id="Path_1" data-name="Path 1" d="M305.041,851.229c133.257,3.1,402.774,163.387,554.625,90.56s-31.231-303.106-92.338-514.323S1288.065,47.54,1242.9-145.079,536.184-85.3,370.133-167.662s-387.9-538.007-387.9-538.007L0,1024.22S171.783,848.13,305.041,851.229Z" transform="translate(1927.868 1052.011) rotate(180)" fill="url(#linear-gradient)"/>
    <path id="Path_2" data-name="Path 2" d="M322.8,172.99C456.061,169.892,725.578,9.6,877.429,82.43S846.2,385.536,785.092,596.754,1305.829,976.68,1260.663,1169.3s-706.715-59.779-872.767,22.583S0,1729.889,0,1729.889L17.764,0S189.547,176.089,322.8,172.99Z" transform="translate(-48.534 1726.791)" fill="url(#linear-gradient-2)"/>
    <circle id="Ellipse_1" data-name="Ellipse 1" cx="8" cy="8" r="8" transform="translate(493 685)" fill="url(#linear-gradient-3)"/>
    <circle id="Ellipse_3" data-name="Ellipse 3" cx="18" cy="18" r="18" transform="translate(1641 519)" opacity="0.39" fill="url(#linear-gradient-3)"/>
    <circle id="Ellipse_11" data-name="Ellipse 11" cx="13" cy="13" r="13" transform="translate(1294 1490)" fill="url(#linear-gradient-3)"/>
    <circle id="Ellipse_16" data-name="Ellipse 16" cx="4.5" cy="4.5" r="4.5" transform="translate(374 2356)" fill="url(#linear-gradient-3)"/>
    <circle id="Ellipse_12" data-name="Ellipse 12" cx="10.5" cy="10.5" r="10.5" transform="translate(1054 1897)" fill="url(#linear-gradient-3)"/>
    <circle id="Ellipse_5" data-name="Ellipse 5" cx="23" cy="23" r="23" transform="translate(311 1862)" opacity="0.44" fill="url(#linear-gradient-3)"/>
    <circle id="Ellipse_7" data-name="Ellipse 7" cx="7" cy="7" r="7" transform="translate(1421 197)" fill="url(#linear-gradient-3)"/>
    <circle id="Ellipse_6" data-name="Ellipse 6" cx="8" cy="8" r="8" transform="translate(338 290)" fill="url(#linear-gradient-3)"/>
    <circle id="Ellipse_9" data-name="Ellipse 9" cx="2.5" cy="2.5" r="2.5" transform="translate(672 417)" fill="#d2384f"/>
    <circle id="Ellipse_10" data-name="Ellipse 10" cx="2.5" cy="2.5" r="2.5" transform="translate(1161 656)" fill="#d2384f"/>
    <circle id="Ellipse_13" data-name="Ellipse 13" cx="1" cy="1" r="1" transform="translate(1055 676)" fill="#d2384f"/>
    <circle id="Ellipse_14" data-name="Ellipse 14" cx="8" cy="8" r="8" transform="translate(1400 2619)" fill="#d2384f"/>
    <circle id="Ellipse_15" data-name="Ellipse 15" cx="2.5" cy="2.5" r="2.5" transform="translate(712 3190)" fill="#d2384f"/>
    <circle id="Ellipse_2" data-name="Ellipse 2" cx="21.5" cy="21.5" r="21.5" transform="translate(226 915)" fill="rgba(167,155,157,0.26)"/>
    <circle id="Ellipse_17" data-name="Ellipse 17" cx="21.5" cy="21.5" r="21.5" transform="translate(1528 3086)" fill="rgba(167,155,157,0.26)"/>
    <circle id="Ellipse_8" data-name="Ellipse 8" cx="17.5" cy="17.5" r="17.5" transform="translate(1263 497)" fill="rgba(167,155,157,0.26)"/>
    <circle id="Ellipse_4" data-name="Ellipse 4" cx="11" cy="11" r="11" transform="translate(807 872)" fill="rgba(167,155,157,0.26)"/>
  </g>
</svg>
