<svg width="26" height="42" viewBox="0 0 26 42" fill="none" xmlns="http://www.w3.org/2000/svg">
<path d="M13 33.7996C13.3448 33.7996 13.6754 33.6626 13.9192 33.4188C14.163 33.1751 14.3 32.8444 14.3 32.4996V27.2996C14.3 26.9548 14.163 26.6242 13.9192 26.3804C13.6754 26.1366 13.3448 25.9996 13 25.9996C12.6552 25.9996 12.3246 26.1366 12.0808 26.3804C11.837 26.6242 11.7 26.9548 11.7 27.2996V32.4996C11.7 32.8444 11.837 33.1751 12.0808 33.4188C12.3246 33.6626 12.6552 33.7996 13 33.7996ZM23.4 12.9996C23.4 10.2414 22.3043 7.59608 20.3539 5.6457C18.4035 3.69532 15.7583 2.59961 13 2.59961C10.2417 2.59961 7.59647 3.69532 5.64609 5.6457C3.69571 7.59608 2.6 10.2414 2.6 12.9996V28.5996C2.6 31.3579 3.69571 34.0031 5.64609 35.9535C7.59647 37.9039 10.2417 38.9996 13 38.9996C15.7583 38.9996 18.4035 37.9039 20.3539 35.9535C22.3043 34.0031 23.4 31.3579 23.4 28.5996V12.9996ZM13 41.5996C9.55219 41.5996 6.24558 40.23 3.80761 37.792C1.36964 35.354 0 32.0474 0 28.5996V12.9996C0 9.5518 1.36964 6.2452 3.80761 3.80722C6.24558 1.36925 9.55219 -0.000389099 13 -0.000389099C16.4478 -0.000389099 19.7544 1.36925 22.1924 3.80722C24.6304 6.2452 26 9.5518 26 12.9996V28.5996C26 32.0474 24.6304 35.354 22.1924 37.792C19.7544 40.23 16.4478 41.5996 13 41.5996V41.5996Z" fill="white"/>
</svg>
